<svg width="114" height="144" viewBox="0 0 114 144" fill="none" xmlns="http://www.w3.org/2000/svg">
<path d="M110.853 73.7453C111.059 73.0977 111.248 72.4343 111.438 71.771C111.549 71.3761 111.691 70.9812 111.786 70.5864H111.77C112.923 66.1007 113.54 61.3781 113.54 56.5133C113.54 25.3031 88.2247 0 56.9998 0C25.7749 0 0.459961 25.3031 0.459961 56.5133C0.459961 81.3583 16.4991 102.428 38.78 110.01L33.7075 144C33.7075 144 76.2152 122.551 98.9386 94.3889C104.058 88.7187 108.041 82.0059 110.537 74.614C110.648 74.3139 110.743 74.0296 110.838 73.7295L110.853 73.7453Z" fill="#0FEC0F"/>
</svg>
