<svg width="63" height="80" viewBox="0 0 63 80" fill="none" xmlns="http://www.w3.org/2000/svg">
<path d="M61.3081 40.9696C61.4222 40.6098 61.5275 40.2413 61.6328 39.8728C61.6942 39.6534 61.7732 39.434 61.8259 39.2146H61.8171C62.4577 36.7226 62.8 34.0989 62.8 31.3963C62.8 14.0573 48.7411 0 31.4 0C14.0589 0 0 14.0573 0 31.3963C0 45.1991 8.90749 56.9047 21.2814 61.1166L18.4644 80C18.4644 80 42.0714 68.0838 54.6911 52.4383C57.5345 49.2881 59.746 45.5588 61.1326 41.4522C61.194 41.2855 61.2467 41.1276 61.2993 40.9608L61.3081 40.9696Z" fill="#00FF00"/>
</svg>
