<svg width="480" height="480" viewBox="0 0 480 480" fill="none" xmlns="http://www.w3.org/2000/svg">
<g clip-path="url(#clip0_434_1633)">
<path opacity="0.6" d="M574.704 249.377C575.415 247.135 576.071 244.837 576.727 242.54C577.11 241.173 577.602 239.805 577.93 238.438H577.876C581.868 222.904 584 206.55 584 189.704C584 81.6236 496.393 -6 388.333 -6C280.274 -6 192.667 81.6236 192.667 189.704C192.667 275.741 248.173 348.706 325.281 374.96L307.726 492.667C307.726 492.667 454.832 418.389 533.47 320.865C551.189 301.229 564.969 277.983 573.61 252.386C573.993 251.346 574.321 250.362 574.649 249.323L574.704 249.377Z" fill="url(#paint0_linear_434_1633)"/>
</g>
<defs>
<linearGradient id="paint0_linear_434_1633" x1="507.667" y1="12.3333" x2="324.667" y2="511.667" gradientUnits="userSpaceOnUse">
<stop stop-color="#3BFF8F"/>
<stop offset="1" stop-color="#0F8CFF"/>
</linearGradient>
<clipPath id="clip0_434_1633">
<rect width="480" height="480" fill="white"/>
</clipPath>
</defs>
</svg>
