<svg width="168" height="28" viewBox="0 0 168 28" fill="none" xmlns="http://www.w3.org/2000/svg">
<g clip-path="url(#clip0_659_3632)">
<path d="M46.6951 15.3758V15.3864V15.397C46.688 16.2065 46.0306 16.8604 45.2211 16.8604C44.4187 16.8604 43.7683 16.2206 43.7471 15.4218C43.7471 15.4112 43.7436 15.397 43.7436 15.3864V4.08594H35.8788V15.3758V15.3864V15.397C35.8718 16.2065 35.2143 16.8604 34.4049 16.8604C33.6025 16.8604 32.9521 16.2206 32.9309 15.4218H32.9203V4.08594H25.052V19.819H25.0591C25.0555 19.872 25.052 19.925 25.052 19.978C25.052 22.1519 26.8123 23.9122 28.9861 23.9122C31.16 23.9122 32.9203 22.1519 32.9203 19.978C32.9203 19.925 32.9132 19.872 32.9132 19.819H32.9203V18.596C32.9203 18.755 35.4123 23.9122 39.813 23.9122C41.9868 23.9122 43.7471 22.1519 43.7471 19.978V19.9745V19.971C43.7471 19.9215 43.7401 19.8684 43.7401 19.819H43.7471V18.6101C43.8214 18.9141 46.2921 23.898 50.6186 23.9122C50.6221 23.9122 50.6257 23.9122 50.6292 23.9122C50.6292 23.9122 50.6292 23.9122 50.6328 23.9122H50.6363C52.8066 23.9086 54.5669 22.1483 54.5669 19.978V19.9745V19.971C54.5669 19.9215 54.5598 19.8684 54.5598 19.819H54.5669V4.08594H46.6951V15.3758Z" fill="#0C0C0F"/>
<path d="M76.2416 7.62735C76.0471 5.63731 74.3717 4.08557 72.3322 4.08203H72.3286C72.3286 4.08203 72.3286 4.08203 72.3251 4.08203C72.3215 4.08203 72.318 4.08203 72.3145 4.08203C67.988 4.09617 65.5172 9.08012 65.443 9.38411V8.17877V8.01971V4.08557H61.5088H57.5747V8.01971V8.17877V19.8186V23.9118H65.443V19.8186V12.6113C65.443 12.6007 65.443 12.5866 65.4465 12.576C65.4677 11.7771 66.1181 11.1373 66.9205 11.1373C67.73 11.1373 68.3909 11.7912 68.3945 12.6007V12.6113V12.6219V23.9118H76.2628V8.17877C76.2628 8.13989 76.2698 8.10101 76.2698 8.06212C76.2663 7.91366 76.2557 7.77228 76.2416 7.62735Z" fill="#0C0C0F"/>
<path d="M83.1922 11.9523C85.365 11.9523 87.1263 10.1909 87.1263 8.01812C87.1263 5.84536 85.365 4.08398 83.1922 4.08398C81.0194 4.08398 79.2581 5.84536 79.2581 8.01812C79.2581 10.1909 81.0194 11.9523 83.1922 11.9523Z" fill="#0C0C0F"/>
<path d="M83.1922 23.9132C85.365 23.9132 87.1263 22.1518 87.1263 19.9791C87.1263 17.8063 85.365 16.0449 83.1922 16.0449C81.0194 16.0449 79.2581 17.8063 79.2581 19.9791C79.2581 22.1518 81.0194 23.9132 83.1922 23.9132Z" fill="#0C0C0F"/>
<path d="M108.78 7.62735C108.585 5.63731 106.91 4.08557 104.87 4.08203H104.867C104.867 4.08203 104.867 4.08203 104.863 4.08203C104.86 4.08203 104.856 4.08203 104.853 4.08203C100.526 4.09617 98.0553 9.08012 97.9811 9.38411V8.17877V8.01971V4.08557H94.0469H90.1128V8.01971V8.17877V19.8186V23.9118H97.9811V19.8186V12.6855H97.9846C97.9846 12.6608 97.9811 12.6396 97.9811 12.6148C97.9811 11.9786 98.384 11.4413 98.9461 11.2328C98.9496 11.2292 98.9531 11.2257 98.9567 11.2222C99.4091 11.0525 100.781 10.7379 103.403 11.7135C103.414 11.717 103.425 11.7206 103.435 11.7241C103.449 11.7312 103.463 11.7347 103.478 11.7382C103.909 11.9008 104.379 11.9963 104.867 11.9963C107.041 11.9963 108.801 10.236 108.801 8.06212C108.804 7.91366 108.794 7.77228 108.78 7.62735Z" fill="#0C0C0F"/>
<path d="M12.1736 2.8139C11.8625 2.78916 11.5479 2.77148 11.2263 2.77148C8.4197 2.77148 5.85703 3.80362 3.89172 5.50382C1.50932 7.56103 0 10.6044 0 13.9977C0 17.6809 1.77443 20.9541 4.51737 23.0007C5.23845 23.5379 6.02316 23.9904 6.86089 24.3439C8.20408 24.913 9.67806 25.224 11.2298 25.224C17.4297 25.224 22.4561 20.1976 22.4561 13.9977C22.4561 8.11598 17.9316 3.29462 12.1736 2.8139ZM16.0087 15.3056C15.9981 15.3409 15.9875 15.3763 15.9769 15.4116C15.9592 15.4717 15.9451 15.5283 15.9239 15.5884C15.9168 15.6131 15.9062 15.6414 15.8956 15.6661C15.6729 16.3271 15.3159 16.928 14.86 17.4335C12.8275 19.9502 9.0312 21.8696 9.0312 21.8696L9.48365 18.8297C7.4936 18.151 6.05851 16.267 6.05851 14.0472C6.05851 11.2583 8.32072 8.99612 11.1096 8.99612C13.8985 8.99612 16.1607 11.2583 16.1607 14.0472C16.1643 14.4855 16.1112 14.9062 16.0087 15.3056Z" fill="#0C0C0F"/>
<path d="M168 13.9977C168 8.11598 163.476 3.29462 157.718 2.8139C157.449 2.79269 157.174 2.77855 156.898 2.77502V2.77148H122.434C122.417 2.77148 122.403 2.77148 122.385 2.77148C119.578 2.77148 117.016 3.80362 115.05 5.50382C112.668 7.56103 111.159 10.6044 111.159 13.9977C111.159 17.6809 112.933 20.9541 115.676 23.0007C116.397 23.5379 117.182 23.9904 118.02 24.3439C119.363 24.913 120.837 25.224 122.388 25.224C122.406 25.224 122.42 25.224 122.438 25.224H156.901V25.2205C163.041 25.1533 168 20.1552 168 13.9977Z" fill="#0C0C0F"/>
<path d="M133.072 21.0157H122.878V7.26562H126.158V17.9723H133.072V21.0157Z" fill="white"/>
<path d="M144.182 21.0121H141.206V19.9693C140.626 20.7258 139.742 21.2666 138.435 21.2666C135.861 21.2666 133.956 19.0256 133.956 16.1801C133.956 13.3523 135.861 11.1113 138.445 11.1113C139.742 11.1113 140.626 11.6627 141.206 12.4192V11.3764H144.182V21.0121ZM137.12 16.1872C137.12 17.4455 137.943 18.3964 139.173 18.3964C140.382 18.3964 141.234 17.4632 141.234 16.1872C141.234 14.9111 140.379 13.978 139.173 13.978C137.947 13.978 137.12 14.9324 137.12 16.1872Z" fill="white"/>
<path d="M156.548 16.1776C156.548 19.0266 154.632 21.2641 152.059 21.2641C150.751 21.2641 149.878 20.7339 149.298 19.9775V21.0096H146.333V6.86719H149.397V12.3C149.977 11.6037 150.822 11.1124 152.059 11.1124C154.632 11.1124 156.548 13.3499 156.548 16.1776ZM149.27 16.1882C149.27 17.4643 150.115 18.3974 151.324 18.3974C152.561 18.3974 153.384 17.4431 153.384 16.1882C153.384 14.9334 152.561 13.979 151.324 13.979C150.115 13.979 149.27 14.9122 149.27 16.1882Z" fill="white"/>
</g>
<defs>
<clipPath id="clip0_659_3632">
<rect width="168" height="24" fill="white" transform="translate(0 2)"/>
</clipPath>
</defs>
</svg>
